<?xml version="1.0" encoding="UTF-8" standalone="no"?>
<!-- Created with Inkscape (http://www.inkscape.org/) -->

<svg
   width="579.93286"
   height="882.65637"
   viewBox="0 0 153.44057 233.53616"
   version="1.1"
   id="svg1"
   xml:space="preserve"
   xmlns="http://www.w3.org/2000/svg"
   xmlns:svg="http://www.w3.org/2000/svg"><defs
     id="defs1" /><g
     id="layer1"
     transform="translate(-351.56242,-124.41578)"><path
       id="path1"
       style="display:none;fill:#000000;stroke-width:3.21831"
       d="m 421.16797,124.41602 c -11.265,-0.0101 -14.75616,0.29917 -20.16016,1.7871 -18.18644,5.00766 -39.01953,17.35081 -39.01953,23.11719 0,0.91008 0.60193,2.25629 1.33789,2.99219 2.25765,2.25771 5.63192,1.57346 10.58008,-2.14453 6.42949,-4.83101 20.31352,-11.38623 28.95508,-13.67188 14.82337,-3.92074 35.55046,-1.72089 49.45312,5.24805 20.01644,10.03354 33.49322,27.40102 39.96094,51.50195 1.38233,5.15085 1.98274,10.70165 2.46484,22.75977 0.54756,13.69071 0.85772,16.18993 2.19532,17.66797 2.10967,2.3316 6.05555,2.25955 7.33593,-0.13281 1.55933,-2.91367 0.44285,-29.95455 -1.6289,-39.44336 -7.57032,-34.67264 -28.3633,-57.95749 -60.18555,-67.39649 -6.89665,-2.04536 -9.02831,-2.27225 -21.28906,-2.28515 z m -1.61914,21.09375 c -6.23949,-0.0822 -12.44293,0.43615 -16.6875,1.58203 -6.44744,1.74059 -16.31841,6.25068 -21.4961,9.82031 -10.32004,7.11492 -21.6806,21.47067 -27.13867,34.29687 -2.87569,6.75782 -3.40985,10.9324 -1.66797,13.03125 2.3345,2.81287 8.57813,0.65749 8.57813,-2.96093 0,-2.82812 8.40535,-18.27656 12.50195,-22.97852 15.94932,-18.30609 38.48022,-25.97455 60.08399,-20.44922 14.79189,3.78313 25.54229,12.7434 33.71289,28.09766 5.42949,10.20322 6.97547,16.96888 7.79492,34.11914 0.42057,8.80235 1.22888,16.55331 1.97656,18.9375 2.69933,8.60732 7.37349,14.08429 16.76563,19.64844 4.62143,2.73795 5.45133,2.79475 7.71484,0.53125 2.74831,-2.74831 1.8725,-5.79081 -2.60547,-9.04883 -11.60041,-8.44023 -12.88053,-11.25585 -13.68164,-30.10938 -0.6985,-16.43696 -2.62191,-25.57431 -7.67383,-36.4414 -8.70361,-18.72216 -22.30456,-30.59966 -41.27929,-36.05078 -4.38405,-1.25949 -10.65895,-1.94325 -16.89844,-2.02539 z m 1.375,21.14453 c -2.01925,-0.11217 -4.03225,-0.0726 -6.01758,0.13086 -19.05647,1.95236 -35.36181,14.01975 -42.46289,31.42382 -3.97456,9.74119 -5.32108,18.98898 -5.33398,36.60352 -0.007,9.43861 0.3497,16.6996 0.86914,17.66992 1.08522,2.0278 5.24768,2.20741 7.14648,0.3086 1.11669,-1.11643 1.33984,-3.85423 1.33984,-16.5293 0,-18.65786 1.22135,-25.89934 6.00782,-35.60938 6.11209,-12.39927 17.17837,-20.84605 30.33007,-23.14843 7.48664,-1.31069 16.02678,0.35328 23.62696,4.60351 13.46781,7.53163 18.98571,19.09173 19.6875,41.2461 0.48551,15.32645 1.60331,21.28701 5.54297,29.57031 5.6345,11.84681 15.46665,20.75608 29.10742,26.375 3.87066,1.59448 7.34216,2.90806 7.71484,2.91406 1.14469,0.0263 4.85742,-4.09115 4.85742,-5.38672 0,-2.37337 -3.06445,-4.95151 -8.7207,-7.33789 -8.13829,-3.43343 -16.33399,-9.57688 -20.71875,-15.5332 -5.71566,-7.76412 -7.18135,-13.58148 -8.00781,-31.75781 -0.80214,-17.64074 -2.69421,-25.34523 -8.37891,-34.14063 -7.97898,-12.345 -22.4551,-20.6172 -36.58984,-21.40234 z m -4.54297,21.30664 c -7.95535,0.52266 -13.50842,2.82968 -18.45703,7.66797 -8.57043,8.37946 -10.92324,16.39923 -11.60352,39.55468 -0.60962,20.74867 -2.09242,25.18592 -10.22265,30.60157 -7.40451,4.93219 -8.75133,7.31667 -6.14649,10.8789 3.83874,5.24984 17.34207,-3.45118 22.35742,-14.40625 2.97946,-6.50795 3.74024,-11.95668 3.74024,-26.7832 0,-14.82362 1.3881,-22.06503 5.38672,-28.10742 8.48258,-12.81803 25.99318,-12.1817 32.53125,1.18164 2.11533,4.32361 2.43819,6.18052 3.08984,17.7539 1.52393,27.06589 5.7895,39.39065 18.12891,52.38086 9.05035,9.52763 18.68206,15.7939 32.39453,21.07618 2.81306,1.08367 5.97751,1.98601 7.03125,2.01171 2.29369,0.0498 5.32226,-2.74811 5.32226,-4.91796 0,-1.89868 -3.07507,-4.83661 -5.96093,-5.69532 -5.53261,-1.64616 -18.79801,-8.56067 -23.97461,-12.49609 -11.18519,-8.50343 -19.28505,-21.42046 -21.60938,-34.46094 -0.65448,-3.67261 -1.20531,-10.69973 -1.22461,-15.61719 -0.0649,-16.74386 -2.77135,-25.84947 -9.76172,-32.83984 -6.08641,-6.08641 -12.23162,-8.36056 -21.02148,-7.7832 z m 0.32226,20.41992 c -4.46553,0.50334 -6.71658,2.35975 -9.00976,7.42969 -1.46555,3.24033 -1.83241,6.46184 -2.37695,20.86328 -0.40036,10.59437 -1.15569,19.09297 -1.99805,22.49023 -3.06487,12.36071 -9.84658,20.1553 -23.09766,26.54688 -9.15855,4.41771 -10.45825,5.88172 -8.67968,9.78515 0.50785,1.11469 1.63877,2.25448 2.51171,2.53125 4.92518,1.5632 24.10859,-9.31171 29.95118,-16.97851 3.17268,-4.16321 6.31382,-10.88796 8.26367,-17.69141 1.38909,-4.84691 1.9449,-10.06999 2.47656,-23.2793 0.43628,-10.83941 1.09565,-17.95809 1.8125,-19.58398 1.01866,-2.31037 1.18178,-1.29232 1.70508,10.64453 1.1853,27.02825 7.57569,43.36764 23.73047,60.66602 10.97799,11.75515 22.28736,19.45862 37.26172,25.38476 8.02963,3.17776 10.31453,3.43604 12.80273,1.44532 1.55522,-1.24401 1.29988,-5.28814 -0.42578,-6.75196 -0.81957,-0.69522 -5.89735,-3.13917 -11.2832,-5.43164 -21.5824,-9.18655 -36.49629,-22.91658 -45.11719,-41.53125 -4.85721,-10.48804 -6.06401,-16.24363 -6.53711,-31.22656 -0.48049,-15.21123 -1.66332,-20.144 -5.63086,-23.48242 -2.23801,-1.8804 -3.26195,-2.17895 -6.35938,-1.83008 z m -357.919917,15.02734 0.105469,34.51953 0.103516,34.52149 h 5.017578 5.015625 l -0.41211,-23.20313 c -0.225945,-12.76203 -0.227987,-22.82014 -0.0059,-22.35156 0.22209,0.46833 2.35078,9.4723 4.730469,20.00977 6.32616,28.01279 5.427813,25.54492 9.294921,25.54492 h 3.28125 l 1.275391,-5.74805 c 0.70205,-3.16122 2.946601,-13.79393 4.988281,-23.6289 l 3.712891,-17.88086 0.226563,23.6289 0.226562,23.62891 h 5.0957 5.09571 V 257.96289 223.47656 H 99.3125 c -6.79078,0 -7.247459,0.11441 -7.662109,1.91602 -0.2425,1.05374 -1.790617,8.43092 -3.441407,16.39258 -1.65079,7.96159 -3.701307,17.15717 -4.554687,20.43554 l -1.550781,5.96094 -1.107422,-5.10937 c -0.60935,-2.80998 -2.702984,-12.77203 -4.652344,-22.13868 l -3.544922,-17.03125 -7.007812,-0.24804 z m -22.923828,0.0664 v 34.48633 34.48633 h 5.960937 5.960938 v -34.48633 -34.48633 h -5.960938 z m 80.892575,0 v 34.48633 34.48437 h 5.53516 5.53516 v -12.77343 -12.77149 h 4.98242 c 11.96213,0 17.30285,-5.30547 18.51953,-18.39648 0.84454,-9.08691 -0.76352,-15.28392 -5.08789,-19.61133 -4.47404,-4.47712 -7.90006,-5.41002 -19.9043,-5.41602 z m 42.57617,0 v 34.48633 34.48633 h 5.53516 5.53516 v -13.625 -13.62305 h 2.46094 c 2.35436,0 2.59667,0.3798 5.54296,8.72656 1.69448,4.80037 3.7826,10.8363 4.64063,13.41211 l 1.56055,4.68359 5.24414,0.25391 c 2.88426,0.13968 5.24414,-0.0676 5.24414,-0.45898 0,-0.39116 -1.91615,-6.43008 -4.25782,-13.41993 -2.34165,-6.98986 -4.25781,-13.38057 -4.25781,-14.20117 0,-0.82067 0.8025,-1.92072 1.78321,-2.44531 3.22216,-1.72444 5.22821,-7.93928 5.32421,-16.49414 0.10527,-9.3763 -1.06072,-13.0727 -5.35156,-16.94922 -4.0443,-3.65376 -9.04942,-4.83203 -20.53125,-4.83203 z m 88.55665,0 v 34.48633 34.48633 h 5.15039 5.15234 l -0.25586,-21.2461 c -0.13994,-11.68576 8.4e-4,-20.9793 0.3125,-20.65039 0.31167,0.32872 3.82574,9.22034 7.80859,19.75781 3.98285,10.53746 7.50435,19.82887 7.82618,20.64844 0.45655,1.16252 1.59478,1.49024 5.17773,1.49024 h 4.5918 v -34.48633 -34.48633 h -5.09375 -5.09375 l -0.22852,20.53125 -0.22656,20.53125 -7.5957,-20.53125 -7.59375,-20.53125 h -4.96485 z m 42.57617,0 v 5.10937 5.10938 h 5.53515 5.53516 v 29.37695 29.37696 h 5.53516 5.53515 v -29.37696 -29.37695 h 5.10742 5.10938 v -5.10938 -5.10937 h -16.17774 z m 45.46289,0 -6.18164,32.99609 c -3.39938,18.14781 -6.37315,33.66676 -6.60938,34.48633 -0.37442,1.30155 0.21821,1.49024 4.67969,1.49024 5.58635,0 5.44243,0.14318 6.45703,-6.38672 1.36277,-8.77016 0.70908,-8.08789 7.75977,-8.08789 7.09522,0 6.33202,-0.84577 8.01172,8.86523 0.47895,2.76917 1.02032,5.18439 1.20312,5.36719 0.18287,0.18214 2.41822,0.21583 4.9668,0.0742 l 4.63281,-0.25782 -2.29297,-11.92187 c -1.26138,-6.55661 -4.31768,-21.97974 -6.79101,-34.27344 l -4.4961,-22.35156 h -5.66992 z m -115.02149,0.0566 c -5.01409,-0.0642 -10.07963,1.44202 -13.11328,4.54492 -4.512,4.61493 -5.20374,9.10813 -4.88867,31.82422 0.26617,19.19036 0.38023,20.40303 2.2832,24.26758 2.35035,4.77308 6.14726,7.93384 10.82422,9.01172 9.33819,2.15203 18.50309,-2.59597 20.77149,-10.76367 0.50167,-1.80631 0.8644,-12.31283 0.8457,-24.45508 -0.034,-22.19858 -0.49956,-25.70591 -3.92188,-29.55469 -2.8257,-3.1778 -7.78669,-4.81085 -12.80078,-4.875 z m -0.26562,9.31055 c 1.65906,0 3.40517,0.77233 4.72266,2.08984 l 2.08984,2.08984 v 21.36524 21.36523 l -2.08984,2.08985 c -3.37363,3.37363 -8.17877,2.54286 -10.5,-1.81641 -0.89632,-1.68331 -1.18375,-10.59931 -1.07813,-33.38672 0.0419,-9.04694 0.16883,-9.74109 2.13477,-11.70703 1.3175,-1.31751 3.06163,-2.08984 4.7207,-2.08984 z m -50.23828,0.64062 4.72656,0.39063 c 6.75305,0.55998 7.55693,1.66599 7.91602,10.875 0.28049,7.19319 0.18262,7.70213 -1.87696,9.76172 -1.75557,1.7554 -2.99803,2.17382 -6.46875,2.17382 h -4.29687 v -11.60156 z m -42.57617,0.21094 h 4.16406 c 6.82896,0 8.12073,1.65558 8.47461,10.85352 0.26995,7.0165 0.13663,7.78096 -1.75196,9.97656 -1.61124,1.87319 -2.98492,2.46803 -6.46679,2.80273 l -4.41992,0.42578 v -12.02929 z m 214.02929,7.24023 c 0.14591,-0.46633 1.12943,4.70726 2.18555,11.4961 1.05613,6.78878 2.12724,13.39764 2.37891,14.68554 0.45616,2.33571 0.4366,2.3418 -4.33204,2.3418 -4.01993,0 -4.78906,-0.243 -4.78906,-1.51172 0,-1.46376 4.02111,-25.30003 4.55664,-27.01172 z m 77.125,37.12696 c -1.7723,-0.37168 -3.45569,1.47211 -6.18359,5.29492 -6.48233,9.08408 -14.1723,15.46084 -24.94922,20.68945 -9.8844,4.79574 -11.18387,6.14902 -9.68555,10.08985 1.55882,4.10006 4.5954,3.94799 14.1211,-0.71289 9.30331,-4.55213 16.60357,-9.8664 22.0664,-16.0625 l 4.13282,-4.6875 4.61523,6.48632 c 11.21177,15.7579 27.14574,27.68024 47.46289,35.51368 6.09008,2.34808 8.36314,2.50802 10.15625,0.71484 1.60079,-1.60098 1.76442,-5.77199 0.27344,-6.97461 -0.58541,-0.47219 -4.83473,-2.4029 -9.44336,-4.29102 -13.6983,-5.61222 -21.16304,-10.5607 -31.72266,-21.02929 -6.74224,-6.68418 -10.78915,-11.56237 -14.13086,-17.03125 -3.08015,-5.04085 -4.94059,-7.62833 -6.71289,-8 z m -0.96679,31.41601 c -0.97579,0 -3.34795,1.25983 -5.26954,2.79883 -5.15831,4.13135 -7.55241,5.51422 -15.2539,8.81055 -3.83089,1.63973 -7.63729,3.59035 -8.45899,4.33398 -3.16547,2.86468 -0.98148,8.21735 3.30274,8.0957 3.37222,-0.0958 17.88236,-6.4734 21.6875,-9.53124 l 3.06836,-2.46485 5.02148,5.09375 c 8.7356,8.86053 19.12468,16.00211 30.64258,21.06445 v 0.002 c 7.22646,3.17566 10.54939,3.15212 12.0918,-0.082 0.77626,-1.62802 0.8532,-2.80118 0.25781,-3.91407 -0.46795,-0.87429 -5.61349,-3.93057 -11.43555,-6.79101 -11.87983,-5.83661 -20.27032,-12.12707 -28.50586,-21.37696 -3.41096,-3.83107 -6.02273,-6.03906 -7.14843,-6.03906 z m -3.23633,23.84375 c -1.64842,0 -9.25922,4.22158 -11.02344,6.11524 -4.8258,5.17994 1.58316,11.13435 7.51367,6.98047 1.85581,-1.29969 2.12658,-1.26423 4.66016,0.63086 1.47933,1.10651 5.75577,4.02783 9.50195,6.49023 v -0.002 c 9.12,5.99488 13.19922,5.8915 13.19922,-0.33594 0,-2.98974 0.2613,-2.7389 -9.79297,-9.39258 -3.27837,-2.16953 -7.58058,-5.41548 -9.56055,-7.21484 -1.97991,-1.79943 -4.00371,-3.27149 -4.49804,-3.27149 z" /><g
       id="g21"><path
         style="stroke-width:3.21831"
         d="m 414.77344,333.32026 c -1.64842,0 -9.25922,4.22158 -11.02344,6.11524 -4.8258,5.17994 1.58316,11.13435 7.51367,6.98047 1.85581,-1.29969 2.12658,-1.26423 4.66016,0.63086 1.47933,1.10651 5.75577,4.02783 9.50195,6.49023 v -0.002 c 9.12,5.99488 13.19922,5.8915 13.19922,-0.33594 0,-2.98974 0.2613,-2.7389 -9.79297,-9.39258 -3.27837,-2.16953 -7.58058,-5.41548 -9.56055,-7.21484 -1.97991,-1.79943 -4.00371,-3.27149 -4.49804,-3.27149 z"
         id="path21" /><path
         style="stroke-width:3.21831"
         d="m 418.00977,309.47651 c -0.97579,0 -3.34795,1.25983 -5.26954,2.79883 -5.15831,4.13135 -7.55241,5.51422 -15.2539,8.81055 -3.83089,1.63973 -7.63729,3.59035 -8.45899,4.33398 -3.16547,2.86468 -0.98148,8.21735 3.30274,8.0957 3.37222,-0.0958 17.88236,-6.4734 21.6875,-9.53124 l 3.06836,-2.46485 5.02148,5.09375 c 8.7356,8.86053 19.12468,16.00211 30.64258,21.06445 v 0.002 c 7.22646,3.17566 10.54939,3.15212 12.0918,-0.082 0.77626,-1.62802 0.8532,-2.80118 0.25781,-3.91407 -0.46795,-0.87429 -5.61349,-3.93057 -11.43555,-6.79101 -11.87983,-5.83661 -20.27032,-12.12707 -28.50586,-21.37696 -3.41096,-3.83107 -6.02273,-6.03906 -7.14843,-6.03906 z"
         id="path20" /><path
         style="stroke-width:3.21831"
         d="m 418.97656,278.0605 c -1.7723,-0.37168 -3.45569,1.47211 -6.18359,5.29492 -6.48233,9.08408 -14.1723,15.46084 -24.94922,20.68945 -9.8844,4.79574 -11.18387,6.14902 -9.68555,10.08985 1.55882,4.10006 4.5954,3.94799 14.1211,-0.71289 9.30331,-4.55213 16.60357,-9.8664 22.0664,-16.0625 l 4.13282,-4.6875 4.61523,6.48632 c 11.21177,15.7579 27.14574,27.68024 47.46289,35.51368 6.09008,2.34808 8.36314,2.50802 10.15625,0.71484 1.60079,-1.60098 1.76442,-5.77199 0.27344,-6.97461 -0.58541,-0.47219 -4.83473,-2.4029 -9.44336,-4.29102 -13.6983,-5.61222 -21.16304,-10.5607 -31.72266,-21.02929 -6.74224,-6.68418 -10.78915,-11.56237 -14.13086,-17.03125 -3.08015,-5.04085 -4.94059,-7.62833 -6.71289,-8 z"
         id="path19" /><path
         style="stroke-width:3.21831"
         d="m 416.70312,208.38086 c -4.46553,0.50334 -6.71658,2.35975 -9.00976,7.42969 -1.46555,3.24033 -1.83241,6.46184 -2.37695,20.86328 -0.40036,10.59437 -1.15569,19.09297 -1.99805,22.49023 -3.06487,12.36071 -9.84658,20.1553 -23.09766,26.54688 -9.15855,4.41771 -10.45825,5.88172 -8.67968,9.78515 0.50785,1.11469 1.63877,2.25448 2.51171,2.53125 4.92518,1.5632 24.10859,-9.31171 29.95118,-16.97851 3.17268,-4.16321 6.31382,-10.88796 8.26367,-17.69141 1.38909,-4.84691 1.9449,-10.06999 2.47656,-23.2793 0.43628,-10.83941 1.09565,-17.95809 1.8125,-19.58398 1.01866,-2.31037 1.18178,-1.29232 1.70508,10.64453 1.1853,27.02825 7.57569,43.36764 23.73047,60.66602 10.97799,11.75515 22.28736,19.45862 37.26172,25.38476 8.02963,3.17776 10.31453,3.43604 12.80273,1.44532 1.55522,-1.24401 1.29988,-5.28814 -0.42578,-6.75196 -0.81957,-0.69522 -5.89735,-3.13917 -11.2832,-5.43164 -21.5824,-9.18655 -36.49629,-22.91658 -45.11719,-41.53125 -4.85721,-10.48804 -6.06401,-16.24363 -6.53711,-31.22656 -0.48049,-15.21123 -1.66332,-20.144 -5.63086,-23.48242 -2.23801,-1.8804 -3.26195,-2.17895 -6.35938,-1.83008 z"
         id="path6" /><path
         style="stroke-width:3.21831"
         d="m 416.38086,187.96094 c -7.95535,0.52266 -13.50842,2.82968 -18.45703,7.66797 -8.57043,8.37946 -10.92324,16.39923 -11.60352,39.55468 -0.60962,20.74867 -2.09242,25.18592 -10.22265,30.60157 -7.40451,4.93219 -8.75133,7.31667 -6.14649,10.8789 3.83874,5.24984 17.34207,-3.45118 22.35742,-14.40625 2.97946,-6.50795 3.74024,-11.95668 3.74024,-26.7832 0,-14.82362 1.3881,-22.06503 5.38672,-28.10742 8.48258,-12.81803 25.99318,-12.1817 32.53125,1.18164 2.11533,4.32361 2.43819,6.18052 3.08984,17.7539 1.52393,27.06589 5.7895,39.39065 18.12891,52.38086 9.05035,9.52763 18.68206,15.7939 32.39453,21.07618 2.81306,1.08367 5.97751,1.98601 7.03125,2.01171 2.29369,0.0498 5.32226,-2.74811 5.32226,-4.91796 0,-1.89868 -3.07507,-4.83661 -5.96093,-5.69532 -5.53261,-1.64616 -18.79801,-8.56067 -23.97461,-12.49609 -11.18519,-8.50343 -19.28505,-21.42046 -21.60938,-34.46094 -0.65448,-3.67261 -1.20531,-10.69973 -1.22461,-15.61719 -0.0649,-16.74386 -2.77135,-25.84947 -9.76172,-32.83984 -6.08641,-6.08641 -12.23162,-8.36056 -21.02148,-7.7832 z"
         id="path5" /><path
         style="stroke-width:3.21831"
         d="m 420.92383,166.6543 c -2.01925,-0.11217 -4.03225,-0.0726 -6.01758,0.13086 -19.05647,1.95236 -35.36181,14.01975 -42.46289,31.42382 -3.97456,9.74119 -5.32108,18.98898 -5.33398,36.60352 -0.007,9.43861 0.3497,16.6996 0.86914,17.66992 1.08522,2.0278 5.24768,2.20741 7.14648,0.3086 1.11669,-1.11643 1.33984,-3.85423 1.33984,-16.5293 0,-18.65786 1.22135,-25.89934 6.00782,-35.60938 6.11209,-12.39927 17.17837,-20.84605 30.33007,-23.14843 7.48664,-1.31069 16.02678,0.35328 23.62696,4.60351 13.46781,7.53163 18.98571,19.09173 19.6875,41.2461 0.48551,15.32645 1.60331,21.28701 5.54297,29.57031 5.6345,11.84681 15.46665,20.75608 29.10742,26.375 3.87066,1.59448 7.34216,2.90806 7.71484,2.91406 1.14469,0.0263 4.85742,-4.09115 4.85742,-5.38672 0,-2.37337 -3.06445,-4.95151 -8.7207,-7.33789 -8.13829,-3.43343 -16.33399,-9.57688 -20.71875,-15.5332 -5.71566,-7.76412 -7.18135,-13.58148 -8.00781,-31.75781 -0.80214,-17.64074 -2.69421,-25.34523 -8.37891,-34.14063 -7.97898,-12.345 -22.4551,-20.6172 -36.58984,-21.40234 z"
         id="path4" /><path
         style="stroke-width:3.21831"
         d="m 419.54883,145.50977 c -6.23949,-0.0822 -12.44293,0.43615 -16.6875,1.58203 -6.44744,1.74059 -16.31841,6.25068 -21.4961,9.82031 -10.32004,7.11492 -21.6806,21.47067 -27.13867,34.29687 -2.87569,6.75782 -3.40985,10.9324 -1.66797,13.03125 2.3345,2.81287 8.57813,0.65749 8.57813,-2.96093 0,-2.82812 8.40535,-18.27656 12.50195,-22.97852 15.94932,-18.30609 38.48022,-25.97455 60.08399,-20.44922 14.79189,3.78313 25.54229,12.7434 33.71289,28.09766 5.42949,10.20322 6.97547,16.96888 7.79492,34.11914 0.42057,8.80235 1.22888,16.55331 1.97656,18.9375 2.69933,8.60732 7.37349,14.08429 16.76563,19.64844 4.62143,2.73795 5.45133,2.79475 7.71484,0.53125 2.74831,-2.74831 1.8725,-5.79081 -2.60547,-9.04883 -11.60041,-8.44023 -12.88053,-11.25585 -13.68164,-30.10938 -0.6985,-16.43696 -2.62191,-25.57431 -7.67383,-36.4414 -8.70361,-18.72216 -22.30456,-30.59966 -41.27929,-36.05078 -4.38405,-1.25949 -10.65895,-1.94325 -16.89844,-2.02539 z"
         id="path3" /><path
         style="stroke-width:3.21831"
         d="m 421.16797,124.41602 c -11.265,-0.0101 -14.75616,0.29917 -20.16016,1.7871 -18.18644,5.00766 -39.01953,17.35081 -39.01953,23.11719 0,0.91008 0.60193,2.25629 1.33789,2.99219 2.25765,2.25771 5.63192,1.57346 10.58008,-2.14453 6.42949,-4.83101 20.31352,-11.38623 28.95508,-13.67188 14.82337,-3.92074 35.55046,-1.72089 49.45312,5.24805 20.01644,10.03354 33.49322,27.40102 39.96094,51.50195 1.38233,5.15085 1.98274,10.70165 2.46484,22.75977 0.54756,13.69071 0.85772,16.18993 2.19532,17.66797 2.10967,2.3316 6.05555,2.25955 7.33593,-0.13281 1.55933,-2.91367 0.44285,-29.95455 -1.6289,-39.44336 -7.57032,-34.67264 -28.3633,-57.95749 -60.18555,-67.39649 -6.89665,-2.04536 -9.02831,-2.27225 -21.28906,-2.28515 z"
         id="path2" /></g></g></svg>
