<?xml version="1.0" encoding="UTF-8" standalone="no"?>
<!-- Created with Inkscape (http://www.inkscape.org/) -->

<svg
   width="1773.1422"
   height="882.65863"
   viewBox="0 0 469.14388 233.53676"
   version="1.1"
   id="svg1"
   xml:space="preserve"
   xmlns="http://www.w3.org/2000/svg"
   xmlns:svg="http://www.w3.org/2000/svg"><defs
     id="defs1" /><g
     id="layer1"
     transform="translate(-35.859118,-124.41573)"><path
       style="fill:#000000;stroke-width:3.21831"
       d="m 425.42517,353.53621 c -3.74618,-2.4624 -8.02165,-5.3825 -9.50098,-6.48902 -2.53358,-1.89508 -2.80412,-1.93177 -4.65993,-0.63208 -5.93051,4.15388 -12.34011,-1.79936 -7.51431,-6.9793 1.76422,-1.89366 9.37444,-6.11647 11.02286,-6.11647 0.49433,0 2.51884,1.47218 4.49875,3.27161 1.97997,1.79936 6.28215,5.04663 9.56052,7.21616 10.05427,6.65368 9.79236,6.40246 9.79236,9.3922 0,6.22744 -4.07927,6.33152 -13.19927,0.33664 z m 27.3242,-5.85753 c -11.5179,-5.06234 -21.90681,-12.20391 -30.64241,-21.06444 l -5.02199,-5.09389 -3.06737,2.46497 c -3.80514,3.05785 -18.31562,9.43378 -21.68784,9.52963 -4.28422,0.12165 -6.46746,-5.23099 -3.30199,-8.09567 0.8217,-0.74363 4.62845,-2.69367 8.45934,-4.3334 7.70149,-3.29633 10.0956,-4.67917 15.25391,-8.81052 1.92159,-1.539 4.29214,-2.7982 5.26793,-2.7982 1.1257,0 3.73923,2.20706 7.15019,6.03814 8.23554,9.24988 16.62414,15.5413 28.50397,21.37791 5.82206,2.86044 10.9684,5.9161 11.43635,6.79039 0.59539,1.11289 0.51815,2.28699 -0.25811,3.91501 -1.54241,3.23415 -4.86539,3.25616 -12.09185,0.0805 z m 17.8068,-13.00617 C 450.23902,326.83907 434.30501,314.9165 423.09324,299.1586 l -4.61532,-6.48677 -4.13289,4.6876 c -5.46283,6.1961 -12.76287,11.50973 -22.06618,16.06184 -9.5257,4.66089 -12.56237,4.81453 -14.12119,0.71447 -1.49832,-3.94083 -0.19889,-5.29432 9.68551,-10.09006 10.77692,-5.22861 18.46676,-11.60576 24.94909,-20.68984 5.45581,-7.64562 6.73696,-7.37696 12.89726,2.70474 3.34171,5.46888 7.38854,10.34611 14.13078,17.03029 10.55962,10.46859 18.02495,15.4174 31.72325,21.02962 4.60863,1.88812 8.85822,3.81924 9.44363,4.29143 1.49098,1.20262 1.32723,5.37459 -0.27356,6.97557 -1.79311,1.79318 -4.06724,1.6331 -10.15732,-0.71498 z m 8.69756,-17.48214 c -14.97436,-5.92614 -26.28275,-13.63053 -37.26074,-25.38568 -16.15478,-17.29838 -22.54687,-33.6384 -23.73217,-60.66665 -0.5233,-11.93685 -0.68647,-12.95423 -1.70513,-10.64386 -0.71685,1.62589 -1.37544,8.74532 -1.81172,19.58473 -0.53166,13.20931 -1.08721,18.43232 -2.4763,23.27923 -1.94985,6.80345 -5.09073,13.52773 -8.26341,17.69094 -5.84259,7.6668 -25.02696,18.54116 -29.95214,16.97796 -0.87294,-0.27677 -2.00276,-1.4158 -2.51061,-2.53049 -1.77857,-3.90343 -0.47888,-5.36854 8.67967,-9.78625 13.25108,-6.39158 20.03233,-14.18543 23.0972,-26.54614 0.84236,-3.39726 1.59724,-11.89689 1.9976,-22.49126 0.54454,-14.40144 0.91111,-17.62175 2.37666,-20.86208 2.29318,-5.06994 4.54446,-6.92639 9.01,-7.42973 3.09743,-0.34887 4.12279,-0.0515 6.3608,1.8289 3.96754,3.33842 5.1504,8.27139 5.63089,23.48262 0.4731,14.98293 1.67803,20.73972 6.53524,31.22776 8.6209,18.61467 23.53657,32.34412 45.11897,41.53067 5.38585,2.29247 10.463,4.73691 11.28257,5.43213 1.72566,1.46382 1.98068,5.50815 0.42546,6.75216 -2.4882,1.99072 -4.77346,1.7328 -12.80309,-1.44496 z m 8.32707,-17.43033 c -13.71247,-5.28228 -23.34475,-11.54924 -32.3951,-21.07687 -12.33941,-12.99021 -16.60503,-25.31488 -18.12896,-52.38077 -0.65165,-11.57338 -0.97483,-13.43003 -3.09016,-17.75364 -6.53807,-13.36334 -24.04905,-13.99909 -32.53163,-1.18106 -3.99862,6.04239 -5.3861,13.2825 -5.3861,28.10612 0,14.82652 -0.76113,20.27635 -3.74059,26.7843 -5.01535,10.95507 -18.51869,19.65611 -22.35743,14.40627 -2.60484,-3.56223 -1.25695,-5.94771 6.14756,-10.8799 8.13023,-5.41565 9.61239,-9.85255 10.22201,-30.60122 0.68028,-23.15545 3.03307,-31.17568 11.6035,-39.55514 4.94861,-4.83829 10.50181,-7.14543 18.45716,-7.66809 8.78986,-0.57736 14.93524,1.69831 21.02165,7.78472 6.99037,6.99037 9.69678,16.09492 9.76166,32.83878 0.0193,4.91746 0.57028,11.94568 1.22476,15.61829 2.32433,13.04048 10.42386,25.95699 21.60905,34.46042 5.1766,3.93542 18.44197,10.84933 23.97458,12.49549 2.88586,0.85871 5.96057,3.79652 5.96057,5.6952 0,2.16985 -3.02824,4.96882 -5.32193,4.919 -1.05374,-0.0257 -4.21754,-0.92823 -7.0306,-2.0119 z M 216.00873,293.1802 c -4.67696,-1.07788 -8.47402,-4.2393 -10.82437,-9.01238 -1.90297,-3.86455 -2.01707,-5.07721 -2.28324,-24.26757 -0.31507,-22.71609 0.375,-27.21008 4.887,-31.82501 6.0673,-6.20581 20.2643,-6.02411 25.91571,0.33149 3.4223,3.84878 3.88757,7.3552 3.92159,29.55378 0.0187,12.14225 -0.34519,22.64824 -0.84686,24.45455 -2.2684,8.1677 -11.43164,12.91697 -20.76983,10.76494 z m 9.35059,-11.33845 2.09008,-2.0901 v -21.36523 -21.36517 l -2.09008,-2.0901 c -1.31749,-1.31751 -3.06296,-2.0901 -4.72202,-2.0901 -1.65907,0 -3.40453,0.77259 -4.72203,2.0901 -1.96594,1.96594 -2.09272,2.66135 -2.13466,11.70829 -0.10562,22.78741 0.18242,31.70175 1.07874,33.38506 2.32124,4.35927 7.12634,5.19088 10.49997,1.81725 z M 35.859118,257.9607 v -34.48623 h 5.960589 5.960588 v 34.48623 34.48624 h -5.960588 -5.960589 z m 23.028932,-0.0322 -0.105045,-34.52125 7.00804,0.24781 7.008038,0.24781 3.54427,17.03022 c 1.94936,9.36665 4.04284,19.32939 4.65219,22.13937 l 1.1079,5.10907 1.55162,-5.96057 c 0.85338,-3.27837 2.90225,-12.47471 4.55304,-20.4363 1.65079,-7.96166 3.19986,-15.33791 3.44236,-16.39165 0.41465,-1.80161 0.87177,-1.91586 7.66255,-1.91586 h 7.221637 v 34.48623 34.48624 h -5.09561 -5.095607 l -0.22637,-23.62945 -0.22631,-23.6295 -3.71212,17.88179 c -2.04168,9.83497 -4.28654,20.46822 -4.98859,23.62944 l -1.27647,5.74772 h -3.28083 c -3.86711,0 -2.96927,2.46742 -9.29543,-25.54537 -2.379689,-10.53747 -4.508417,-19.54219 -4.730507,-20.01052 -0.222128,-0.46858 -0.218845,9.59013 0.0071,22.35216 l 0.411107,23.20373 h -5.015852 -5.016058 z m 57.86474,0.0322 v -34.48623 l 9.57952,0.003 c 12.00424,0.006 15.4304,0.93808 19.90444,5.4152 4.32437,4.32741 5.93184,10.52402 5.0873,19.61093 -1.21668,13.09101 -6.55746,18.39627 -18.51959,18.39627 h -4.98201 v 12.77266 12.77271 h -5.53483 -5.53483 z m 21.95584,-3.43664 c 1.88859,-2.1956 2.02308,-2.96098 1.75313,-9.97749 -0.35388,-9.19794 -1.64712,-10.85396 -8.47608,-10.85396 h -4.16323 v 12.02948 12.02955 l 4.42034,-0.42482 c 3.48187,-0.3347 4.8546,-0.92964 6.46584,-2.80283 z m 20.61978,3.43664 v -34.48623 h 8.47321 c 11.48183,0 16.48561,1.17751 20.52991,4.83127 4.29084,3.87652 5.45824,7.57288 5.35297,16.94918 -0.096,8.55486 -2.10242,14.77026 -5.32458,16.4947 -0.98071,0.52459 -1.78312,1.62577 -1.78312,2.44644 0,0.8206 1.91591,7.21108 4.25756,14.20094 2.34167,6.98985 4.25757,13.02889 4.25757,13.42005 0,0.39134 -2.35984,0.59732 -5.2441,0.45764 l -5.24408,-0.2536 -1.56006,-4.68329 c -0.85803,-2.57581 -2.94645,-8.61093 -4.64093,-13.4113 -2.94629,-8.34676 -3.18843,-8.728 -5.54279,-8.728 h -2.4619 v 13.62415 13.62422 h -5.53483 -5.53483 z m 21.83534,-3.45042 c 2.05958,-2.05959 2.15768,-2.56976 1.87719,-9.76295 -0.35909,-9.20901 -1.16327,-10.31367 -7.91632,-10.87365 l -4.72655,-0.39199 v 11.60086 11.60087 h 4.29627 c 3.47072,0 4.71384,-0.41774 6.46941,-2.17314 z m 66.72194,3.45042 v -34.48623 h 4.9654 4.9654 l 7.59441,20.53117 7.59438,20.53124 0.22786,-20.53124 0.22786,-20.53117 h 5.09394 5.09395 v 34.48623 34.48624 h -4.59221 c -3.58295,0 -4.72082,-0.32763 -5.17737,-1.49015 -0.32183,-0.81957 -3.84382,-10.11169 -7.82667,-20.64915 -3.98285,-10.53747 -7.49654,-19.42794 -7.80821,-19.75666 -0.31166,-0.32891 -0.45211,8.96346 -0.31217,20.64922 l 0.2545,21.24674 h -5.15069 -5.1507 z m 53.64525,5.10907 v -29.37716 h -5.53479 -5.53486 v -5.10907 -5.10907 h 16.17873 16.17872 v 5.10907 5.10907 h -5.10907 -5.10908 v 29.37716 29.37717 h -5.53479 -5.53486 z m 21.60184,27.88702 c 0.23623,-0.81957 3.21014,-16.33842 6.60952,-34.48623 l 6.18064,-32.99609 h 5.67035 5.67035 l 4.49702,22.35216 c 2.47333,12.2937 5.529,27.71676 6.79038,34.27337 l 2.29344,11.92115 -4.63367,0.25875 c -2.54858,0.14161 -4.78331,0.10814 -4.96618,-0.074 -0.1828,-0.1828 -0.72444,-2.59814 -1.20339,-5.36731 -1.6797,-9.711 -0.91677,-8.86665 -8.01199,-8.86665 -7.05069,0 -6.39756,-0.6808 -7.76033,8.08936 -1.0146,6.5299 -0.86946,6.38636 -6.45581,6.38636 -4.46148,0 -5.05475,-0.18859 -4.68033,-1.49014 z m 23.28303,-23.84237 c -0.25167,-1.2879 -1.32221,-7.89613 -2.37834,-14.68491 -1.05612,-6.78884 -2.03964,-11.96176 -2.18555,-11.49543 -0.53553,1.71169 -4.55746,25.54659 -4.55746,27.01035 0,1.26872 0.76982,1.5117 4.78975,1.5117 4.76864,0 4.78776,-0.006 4.3316,-2.34171 z M 490.767,279.29864 c -13.64077,-5.61892 -23.47304,-14.52818 -29.10754,-26.37499 -3.93966,-8.2833 -5.05674,-14.24316 -5.54225,-29.56961 -0.70179,-22.15437 -6.21991,-33.71494 -19.68772,-41.24657 -7.60018,-4.25023 -16.13914,-5.91403 -23.62578,-4.60334 -13.1517,2.30238 -24.21936,10.74897 -30.33145,23.14824 -4.78647,9.71004 -6.00821,16.95099 -6.00821,35.60885 0,12.67507 -0.22142,15.41315 -1.33811,16.52958 -1.8988,1.89881 -6.06182,1.71884 -7.14704,-0.30896 -0.51944,-0.97032 -0.87686,-8.23026 -0.8703,-17.66887 0.0129,-17.61454 1.36019,-26.86327 5.33475,-36.60446 7.10108,-17.40407 23.40693,-29.4703 42.4634,-31.42266 15.88264,-1.62724 33.48888,7.1623 42.60772,21.27087 5.6847,8.7954 7.5752,16.49972 8.37734,34.14046 0.82646,18.17633 2.29343,23.99299 8.00909,31.75711 4.38476,5.95632 12.57936,12.10066 20.71765,15.53409 5.65625,2.38638 8.72085,4.96522 8.72085,7.33859 0,1.29557 -3.71284,5.41257 -4.85753,5.38624 -0.37268,-0.006 -3.84421,-1.32009 -7.71487,-2.91457 z m 3.20576,-20.64381 c -9.39214,-5.56415 -14.06545,-11.04146 -16.76478,-19.64878 -0.74768,-2.38419 -1.55721,-10.13531 -1.97778,-18.93766 -0.81945,-17.15026 -2.36514,-23.91638 -7.79463,-34.1196 -8.1706,-15.35426 -18.92041,-24.3134 -33.7123,-28.09653 -21.60377,-5.52533 -44.13596,2.14327 -60.08528,20.44936 -4.0966,4.70196 -12.50116,20.15052 -12.50116,22.97864 0,3.61842 -6.24302,5.77288 -8.57752,2.96001 -1.74188,-2.09885 -1.20757,-6.27275 1.66812,-13.03057 5.45807,-12.8262 16.81775,-27.1831 27.13779,-34.29802 5.17769,-3.56963 15.04826,-8.07836 21.4957,-9.81895 8.48915,-2.29176 24.81849,-2.07678 33.58659,0.44219 18.97473,5.45112 32.57552,17.3296 41.27913,36.05176 5.05192,10.86709 6.97615,20.00388 7.67465,36.44084 0.80111,18.85353 2.08013,21.66846 13.68054,30.10869 4.47797,3.25802 5.35444,6.30191 2.60613,9.05022 -2.26351,2.2635 -3.09377,2.20628 -7.7152,-0.53167 z m 2.96349,-24.98082 c -1.3376,-1.47804 -1.6483,-3.97822 -2.19586,-17.66893 -0.4821,-12.05812 -1.08354,-17.60849 -2.46587,-22.75934 -6.46772,-24.10093 -19.94306,-41.46876 -39.9595,-51.5023 -13.90266,-6.96894 -34.63073,-9.16846 -49.4541,-5.24772 -8.64156,2.28565 -22.52504,8.84148 -28.95453,13.67249 -4.94816,3.71799 -8.3223,4.40182 -10.57995,2.14411 -0.73596,-0.7359 -1.33811,-2.0827 -1.33811,-2.99278 0,-5.76638 20.83376,-18.10861 39.0202,-23.11625 5.404,-1.48795 8.8949,-1.79743 20.1599,-1.78732 12.26075,0.0129 14.39115,0.24009 21.2878,2.28545 31.82225,9.439 52.61545,32.72318 60.18577,67.39582 2.07175,9.48881 3.18902,36.53077 1.62969,39.44444 -1.28038,2.39236 -5.22577,2.46355 -7.33544,0.13195 z"
       id="path1" /></g></svg>
